
                <svg xmlns="http://www.w3.org/2000/svg" xmlns:xlink="http://www.w3.org/1999/xlink" width="254" height="307">
                
                <g>
                   <rect x="50" y="65" width="139.2" height="30" rx="3" ry="3" style="fill:#90caf9; stroke:#444; stroke-width:1"></rect>
                   <title>let number = 0</title>
            <text x="65" y="85" font-family="monospace" font-size="13" fill="#222">
                <tspan x="65" y="85">let number = 0</tspan>
            </text>
                   
                   
                </g><g>

            <rect x="80" y="148.5" width="138" height="30" rx="3" ry="3" style="fill:#b39ddb; stroke:#444; stroke-width:1"></rect>
            <polygon points="50,163.5 80,133.5 110,163.5 80,193.5" style="fill:#b39ddb; stroke:#444; stroke-width:1"></polygon>
                
            <title>number &lt; 3</title>
            <text x="125" y="168.5" font-family="monospace" font-size="13" fill="#222">
                <tspan x="125" y="168.5">number &lt; 3</tspan>
            </text>
            
            <text x="60.5" y="168.5" font-family="monospace" font-size="13" fill="#222">while</text>
        </g>
                <g>
                   <rect x="100" y="203.5" width="92.4" height="30" rx="3" ry="3" style="fill:#90caf9; stroke:#444; stroke-width:1"></rect>
                   <title>number++</title>
            <text x="115" y="223.5" font-family="monospace" font-size="13" fill="#222">
                <tspan x="115" y="223.5">number++</tspan>
            </text>
                   
                   
                </g>
                <g>
                   <rect x="50" y="252" width="178.2" height="30" rx="2" ry="2" style="fill:#C5E1A5; stroke:#444; stroke-width:1"></rect>
                   <title>console.log(number)</title>
            <text x="65" y="272" font-family="monospace" font-size="13" fill="#222">
                <tspan x="65" y="272">console.log(number)</tspan>
            </text>
                   
                   
                </g>
            <g>
               <rect x="25" y="13.75" width="216.6" height="24" style="fill:#fff59d; stroke:#444; stroke-width:1"></rect>
               <circle cx="25" cy="25" r="15" style="fill:#fff59d; stroke:#444; stroke-width:1"></circle>
               <title>Program: source module</title>
            <text x="55" y="30" font-family="monospace" font-size="13" fill="#222">
                <tspan x="55" y="30">Program: source module</tspan>
            </text>
            </g>
            <g>
               <path d="M25, 40 L25 76 Q25 80
                29 80
                L42 80 " style="fill:none; stroke:#444; stroke-width:1"></path>
               <path d="M42, 77 L50, 80 L42, 83 Z" fill="#333"></path>
            </g>
            <g>
               <path d="M25, 40 L25 159.5 Q25 163.5
                29 163.5
                L42 163.5 " style="fill:none; stroke:#444; stroke-width:1"></path>
               <path d="M42, 160.5 L50, 163.5 L42, 166.5 Z" fill="#333"></path>
            </g>
            <g>
               <path d="M80, 193.5 L80 214.5 Q80 218.5
                84 218.5
                L92 218.5 " style="fill:none; stroke:#444; stroke-width:1"></path>
               <path d="M92, 215.5 L100, 218.5 L92, 221.5 Z" fill="#333"></path>
            </g>
            <g>
               <path d="M192.4, 218.5 L234 218.5  Q238 218.5
                238 214.5
                L238 121.5 Q238 113.5
                234 113.5
                L88 113.5  Q80 113.5
                80 117.5
                L80 125.5" style="fill:none; stroke:#444; stroke-width:1"></path>
               <path d="M77, 125.5 L80, 133.5 L83, 125.5 Z" fill="#333"></path>
            </g>
            <g>
               <path d="M25, 40 L25 263 Q25 267
                29 267
                L42 267 " style="fill:none; stroke:#444; stroke-width:1"></path>
               <path d="M42, 264 L50, 267 L42, 270 Z" fill="#333"></path>
            </g>
            </svg>